<?xml version="1.0" encoding="UTF-8"?>
<svg version="1.1" xmlns="http://www.w3.org/2000/svg" width="512" height="512">
<path d="M0 0 C0.84079102 0.22026855 1.68158203 0.44053711 2.54785156 0.66748047 C16.17374343 4.29946907 30.56844418 8.82190894 42.76302719 16.04415321 C45.589418 17.25185523 47.78318983 17.25056559 50.85601807 17.2515564 C52.05317947 17.25693924 53.25034088 17.26232208 54.48377991 17.26786804 C56.44908913 17.26168205 56.44908913 17.26168205 58.45410156 17.25537109 C59.85056259 17.25812174 61.24702204 17.26180209 62.64347839 17.26634216 C65.6494788 17.27445073 68.65540483 17.27662345 71.6614151 17.27439499 C76.41909347 17.27155988 81.17662356 17.28592218 85.93426514 17.30337524 C99.46282722 17.35038034 112.99137942 17.37433524 126.52001953 17.38085938 C133.99284645 17.38461522 141.46550572 17.40268787 148.93826079 17.43595374 C153.66287964 17.45612686 158.3870649 17.458558 163.11170912 17.44767356 C166.05887961 17.44505772 169.00580019 17.45911307 171.95290565 17.47775459 C173.95996485 17.48557355 175.96707094 17.47367162 177.97410583 17.46107483 C186.01052167 17.534377 192.0953424 18.1397977 198.05859375 24.03515625 C198.51363281 24.70417969 198.96867187 25.37320313 199.4375 26.0625 C199.91058594 26.73410156 200.38367188 27.40570313 200.87109375 28.09765625 C202.75144379 31.2662738 203.12613213 33.86757844 203.13422108 37.46978283 C203.13867892 38.39043882 203.14313676 39.3110948 203.14772969 40.25964946 C203.14745315 41.77917176 203.14745315 41.77917176 203.14717102 43.32939148 C203.15084771 44.40436805 203.1545244 45.47934462 203.1583125 46.58689624 C203.16937021 50.20726828 203.17319672 53.82761163 203.17700195 57.44799805 C203.18326501 60.03641349 203.18991166 62.62482803 203.19691467 65.21324158 C203.21667664 72.99407256 203.22674509 80.77490483 203.23564246 88.55575463 C203.24002593 92.2202284 203.2453926 95.88470073 203.25063133 99.54917336 C203.26764358 111.7314038 203.28213755 123.91363334 203.28938007 136.09587383 C203.29128996 139.2571939 203.29321029 142.41851395 203.29516602 145.57983398 C203.29564976 146.3655613 203.2961335 147.15128861 203.2966319 147.96082584 C203.30493143 160.6878662 203.33026704 173.41481255 203.36274669 186.14181187 C203.39582356 199.20941077 203.41382941 212.2769619 203.41702431 225.34460288 C203.41918887 232.68117179 203.42792939 240.01760361 203.45348549 247.3541317 C203.47747259 254.25617279 203.4810142 261.15796346 203.47072411 268.06003761 C203.47022774 270.59324081 203.47657768 273.126456 203.49028015 275.65962219 C203.50794357 279.11860847 203.50091918 282.57670374 203.48774719 286.03569031 C203.50420106 287.5384822 203.50420106 287.5384822 203.52098733 289.07163352 C203.45540448 296.20776289 202.09174574 301.87264875 196.96484375 307.05859375 C196.29582031 307.51363281 195.62679688 307.96867187 194.9375 308.4375 C194.26589844 308.91058594 193.59429687 309.38367188 192.90234375 309.87109375 C189.8119037 311.70505098 187.28439958 312.12258439 183.76953125 312.09765625 C182.96708984 312.09443359 182.16464844 312.09121094 181.33789062 312.08789062 C180.50451172 312.07951172 179.67113281 312.07113281 178.8125 312.0625 C177.96751953 312.05798828 177.12253906 312.05347656 176.25195312 312.04882812 C174.16793845 312.03705403 172.08396023 312.0191189 170 312 C169.81824219 312.61746094 169.63648438 313.23492187 169.44921875 313.87109375 C169.19785156 314.71800781 168.94648438 315.56492187 168.6875 316.4375 C168.29691406 317.81228516 168.29691406 317.81228516 167.8984375 319.21484375 C167 322 167 322 165.8515625 324.31640625 C164.71898454 326.6965231 164.06826213 328.35597999 164 331 C165.59465161 333.79641803 167.51510036 335.96761111 169.671875 338.35546875 C186.2678566 357.20694449 189.43069861 383.98470189 188 408 C185.68268798 433.10421354 171.89871745 455.91885843 153.25 472.3125 C131.48918339 489.58479308 105.48150353 496.19155133 78 494 C73.23714669 493.31070784 68.61509498 492.2241357 63.97265625 490.97265625 C56.61883773 489.06614465 50.82294982 488.6037588 43.4375 490.875 C25.45843915 496.31628191 4.39980592 495.78124608 -13.1875 489.0625 C-18.55372092 487.31870292 -22.57476807 489.05470386 -27.7421875 490.87109375 C-49.58629942 498.44057618 -75.39852324 494.32391212 -96 485 C-97.60718012 484.15690016 -99.21254235 483.31032896 -100.81640625 482.4609375 C-105.94315575 479.8634494 -110.95042204 478.60754117 -116.5625 477.5 C-118.51252285 477.08185752 -120.46174049 476.6599432 -122.41015625 476.234375 C-123.36164551 476.02748047 -124.31313477 475.82058594 -125.29345703 475.60742188 C-166.19489018 466.42802753 -203.97619791 443.88566795 -234 415 C-234.94045166 414.10039551 -234.94045166 414.10039551 -235.89990234 413.18261719 C-245.08623191 404.34969347 -253.52329641 395.32645397 -261 385 C-261.44118164 384.39784668 -261.88236328 383.79569336 -262.33691406 383.17529297 C-293.27136799 340.66543769 -309.78897221 290.370027 -309.4375 237.8125 C-309.43445862 236.83753571 -309.43141724 235.86257141 -309.42828369 234.85806274 C-309.35516931 218.93066311 -308.37857197 203.61239651 -305 188 C-304.78569336 186.98292969 -304.57138672 185.96585938 -304.35058594 184.91796875 C-296.42786785 148.24512521 -280.4003499 114.31693854 -257 85 C-256.57992676 84.4642334 -256.15985352 83.9284668 -255.72705078 83.37646484 C-243.66517735 68.06920112 -229.43753315 53.61206756 -213.63134766 42.18261719 C-211.97061083 40.97869483 -210.33465234 39.7458285 -208.69921875 38.5078125 C-149.71710751 -5.55524372 -70.71155482 -18.83588747 0 0 Z " fill="#33AD72" transform="translate(309,13)"/>
<path d="M0 0 C0.84079102 0.22026855 1.68158203 0.44053711 2.54785156 0.66748047 C16.87483133 4.48634441 33.03324399 9.02493299 45 18 C-17.37 18 -79.74 18 -144 18 C-145.38675049 32.12172469 -145.38675049 32.12172469 -140 39 C-139.4225 39.5775 -138.845 40.155 -138.25 40.75 C-137 42 -137 42 -137 44 C-136.35017995 43.99848112 -135.70035989 43.99696224 -135.03084832 43.99539733 C-96.53498451 43.90592538 -58.03913409 43.8372742 -19.5431874 43.79573868 C-14.92307853 43.79073573 -10.30296988 43.78555845 -5.68286133 43.78027344 C-4.30316463 43.77869957 -4.30316463 43.77869957 -2.89559527 43.77709392 C12.0064031 43.75967882 26.90833988 43.72813506 41.81030168 43.69138882 C57.09599973 43.65401011 72.38166546 43.63177065 87.66740733 43.62364602 C97.10295192 43.61815187 106.53832243 43.60078621 115.97381345 43.56833413 C122.440158 43.54722413 128.90641228 43.54079197 135.37278881 43.54599449 C139.10609395 43.54856177 142.83909447 43.54456919 146.57234573 43.5231781 C150.61704983 43.50017123 154.66110192 43.50802814 158.70585632 43.51898193 C159.88970419 43.50733057 161.07355206 43.4956792 162.2932741 43.48367476 C170.22934097 43.54204379 170.22934097 43.54204379 174.20588398 45.90506363 C177.68484884 49.9673483 177.14547359 53.77999971 177.14044189 58.90058899 C177.14489858 60.30056076 177.14489858 60.30056076 177.1494453 61.72881478 C177.15815987 64.87561527 177.15964287 68.02237783 177.16113281 71.16918945 C177.16575903 73.41750165 177.17078342 75.66581305 177.17617798 77.91412354 C177.18932281 84.03604611 177.19575098 90.15795771 177.20018864 96.27989221 C177.20311598 100.10151013 177.20722014 103.92312503 177.21169281 107.74474144 C177.22380469 118.32278601 177.23418575 128.90082795 177.2375679 139.47887897 C177.23778747 140.1561339 177.23800703 140.83338882 177.23823325 141.53116662 C177.23845153 142.21005622 177.23866981 142.88894581 177.2388947 143.58840781 C177.23933817 144.9641306 177.23978473 146.33985339 177.24023438 147.71557617 C177.2404558 148.3979844 177.24067723 149.08039263 177.24090537 149.78347989 C177.2448534 160.84099887 177.26230688 171.89845195 177.2855939 182.95594547 C177.30930175 194.30475248 177.32151146 205.65351528 177.32293582 217.00235146 C177.32398569 223.37581089 177.32993208 229.74917742 177.34775543 236.12261391 C177.3641916 242.11683145 177.36641328 248.1108858 177.35761642 254.1051178 C177.35684366 256.30738956 177.36122009 258.50966993 177.37107468 260.71191978 C177.38372355 263.71429612 177.37795572 266.71608835 177.36749268 269.71846008 C177.37957728 271.03110815 177.37957728 271.03110815 177.39190602 272.37027436 C177.35355396 277.06353338 177.08310351 280.21235816 174 284 C170.79593538 286.13604308 170.00399253 286.24208908 166.33203125 286.1953125 C165.43935547 286.18886719 164.54667969 286.18242187 163.62695312 286.17578125 C162.69818359 286.15902344 161.76941406 286.14226562 160.8125 286.125 C159.87212891 286.11597656 158.93175781 286.10695313 157.96289062 286.09765625 C155.64167032 286.07409056 153.32096356 286.04119116 151 286 C150.99945523 284.97754968 150.99891047 283.95509935 150.99834919 282.90166569 C150.98394811 258.01302649 150.94090795 233.12456208 150.86790943 208.2360239 C150.83326943 196.2000533 150.80790519 184.16419711 150.80444336 172.12817383 C150.80140211 161.6364842 150.78088976 151.1449984 150.73947543 140.65338749 C150.71815861 135.09909388 150.7055382 129.54508995 150.71384621 123.99075508 C150.72139447 118.75969133 150.70553146 113.52921414 150.67193985 108.29825783 C150.66371602 106.38150002 150.66394547 104.46468379 150.67340279 102.54793167 C151.12060279 88.83025073 151.12060279 88.83025073 145 77 C140.10927232 72.59888627 135.88215512 70.87825808 129.35218525 70.8613348 C128.1688244 70.85586036 126.98546355 70.85038591 125.76624328 70.84474558 C124.45984128 70.84376747 123.15343928 70.84278936 121.80744934 70.84178162 C120.4106762 70.83721717 119.01390443 70.83221732 117.61713427 70.82681805 C113.77018336 70.81321412 109.9232413 70.80581207 106.07627261 70.79939139 C101.93108175 70.79139734 97.78590938 70.77769614 93.64073181 70.76467896 C86.45602305 70.74290207 79.27131244 70.72476202 72.08658791 70.70907402 C61.69861093 70.68638643 51.31065441 70.65824206 40.92269477 70.62875474 C24.06997285 70.58106521 7.21724259 70.53780471 -9.63549805 70.49731445 C-26.00887706 70.45796645 -42.38224864 70.4165419 -58.75561523 70.37231445 C-59.76443157 70.36959018 -60.7732479 70.36686591 -61.81263443 70.36405908 C-66.8734387 70.35037972 -71.93424287 70.33665942 -76.99504697 70.32291877 C-118.99668251 70.20893261 -160.99833406 70.10212798 -203 70 C-202.67 70.66 -202.34 71.32 -202 72 C-201.70973453 74.08071488 -201.44221922 76.16463514 -201.1875 78.25 C-200.2074163 84.84923025 -198.18635487 88.45325696 -193.8671875 93.484375 C-190.89668457 99.07737216 -191.8194196 104.49659239 -192.15625 110.68164062 C-192.37939031 117.43628376 -191.27963048 122.09534122 -188 128 C-187.62576904 128.692146 -187.25153809 129.38429199 -186.8659668 130.09741211 C-184.0824689 134.95934111 -180.39084586 136.94480132 -175.55395508 139.40893555 C-165.5026033 144.57408392 -165.5026033 144.57408392 -163.77734375 149.46875 C-163.62937289 153.02005067 -163.79294256 156.45466947 -164 160 C-162.18104418 168.60972423 -156.5195124 173.67084801 -150 179 C-150.43915785 181.98627336 -151.04839728 184.08793836 -152.515625 186.75390625 C-155.3379761 192.92594248 -154.93149013 200.16869239 -153.34375 206.69921875 C-150.62709883 213.596234 -146.35166079 217.39265306 -139.75 220.55859375 C-136.18792039 222.09781134 -132.60330626 223.56030427 -129 225 C-127.24553158 225.73948669 -125.49470013 226.48775237 -123.75 227.25 C-123.06421875 227.54390625 -122.3784375 227.8378125 -121.671875 228.140625 C-120 229 -120 229 -118 231 C-117.53231636 235.95744661 -117.85592745 239.06990931 -121 243 C-125.83876311 246.10288397 -131.46898276 245.51433988 -137 245 C-139.0302589 244.06295743 -141.03696582 243.07074592 -143 242 C-146.51108325 241.47232275 -149.75100228 241.37550114 -153 243 C-155.06155703 247.12311407 -154.416208 251.751376 -153 256 C-150.44165214 257.26332576 -147.93063666 258.01851608 -145.17578125 258.75390625 C-142.20208535 259.59368122 -139.66982275 260.43387849 -137 262 C-135.8743975 264.35077753 -135.58558018 266.29090048 -135.30078125 268.87109375 C-135.12974069 271.21617015 -135.12974069 271.21617015 -133.25 273.5625 C-130.27223285 275.46496235 -128.47735536 275.43466942 -125 275 C-123.64975856 274.3682799 -122.31234714 273.70708359 -121 273 C-120.79697266 274.051875 -120.79697266 274.051875 -120.58984375 275.125 C-118.93063351 282.43744754 -116.38211669 286.8253866 -111 292 C-107.94377878 295.05622122 -107.83246099 298.80643918 -106.9765625 302.95703125 C-105.88912225 306.34549506 -104.36199953 308.370696 -102 311 C-103.12535156 311.81791016 -103.12535156 311.81791016 -104.2734375 312.65234375 C-127.11685966 329.48282481 -144.56399912 351.08432024 -149.5234375 379.67578125 C-152.73216579 405.27850491 -148.01095678 430.64637132 -133.0625 451.9375 C-131.73432029 453.64552877 -130.38023131 455.33375118 -129 457 C-127.95199219 458.27423828 -127.95199219 458.27423828 -126.8828125 459.57421875 C-122.17375153 465.04577891 -117.05780619 469.63553959 -111.3828125 474.08984375 C-109.44107368 475.64641799 -107.73477578 477.22729363 -106 479 C-145.83068751 476.08542902 -186.44884632 454.92435235 -217 430 C-217.98355469 429.22011719 -218.96710938 428.44023437 -219.98046875 427.63671875 C-235.23916481 415.20155834 -249.55068495 401.04272551 -261 385 C-261.43538086 384.40364746 -261.87076172 383.80729492 -262.31933594 383.19287109 C-293.26689335 340.68163555 -309.78903217 290.37899345 -309.4375 237.8125 C-309.43445862 236.83753571 -309.43141724 235.86257141 -309.42828369 234.85806274 C-309.35516931 218.93066311 -308.37857197 203.61239651 -305 188 C-304.78569336 186.98292969 -304.57138672 185.96585938 -304.35058594 184.91796875 C-296.42786785 148.24512521 -280.4003499 114.31693854 -257 85 C-256.57992676 84.4642334 -256.15985352 83.9284668 -255.72705078 83.37646484 C-243.66517735 68.06920112 -229.43753315 53.61206756 -213.63134766 42.18261719 C-211.97061083 40.97869483 -210.33465234 39.7458285 -208.69921875 38.5078125 C-149.71710751 -5.55524372 -70.71155482 -18.83588747 0 0 Z " fill="#279B61" transform="translate(309,13)"/>
<path d="M0 0 C11.11992748 -0.32822807 22.58813796 0.57089385 32.95703125 4.90625 C39.3161203 7.21864602 45.12099679 4.75852627 51.35546875 2.875 C76.60441498 -3.09647314 104.69358369 1.78025924 126.6484375 15.3046875 C133.25388319 19.7584304 139.25678347 24.72244001 144.7265625 30.515625 C146.43679802 32.27225635 146.43679802 32.27225635 148.7890625 33.94140625 C162.78377271 45.83795901 170.36626574 68.40892683 172.39453125 86.15625 C174.39944611 114.15885803 167.98382293 140.67439569 149.64453125 162.40625 C132.86653712 181.52198852 109.3504487 194.59529717 83.68017578 196.34082031 C71.50340447 196.90341669 60.15080894 196.30546085 48.3671875 193.12890625 C41.01336898 191.22239465 35.21748107 190.7600088 27.83203125 193.03125 C9.8529704 198.47253191 -11.20566283 197.93749608 -28.79296875 191.21875 C-34.15918967 189.47495292 -38.18023682 191.21095386 -43.34765625 193.02734375 C-67.74647659 201.48209085 -94.73018008 195.18990409 -117.29296875 184.59375 C-121.09206297 182.60585186 -123.67363463 180.31360982 -126.60546875 177.15625 C-128.0286568 176.03369664 -129.46787297 174.93132184 -130.91796875 173.84375 C-150.95796742 158.36731538 -163.27454172 135.13177234 -166.60546875 110.15625 C-169.06910039 82.51837144 -161.87334249 56.35025238 -143.97265625 34.93359375 C-127.96720253 16.55100718 -106.21021603 3.41629048 -81.60546875 1.15625 C-77.22992728 0.96399192 -72.85979974 0.92554221 -68.48046875 0.90625 C-67.33320313 0.885625 -66.1859375 0.865 -65.00390625 0.84375 C-55.72387074 0.80194804 -47.20636546 2.17900502 -38.44360352 5.27246094 C-32.66160711 7.07296218 -26.93370871 4.77639917 -21.29296875 3.15625 C-14.08621647 1.17851341 -7.44110625 0.32247481 0 0 Z " fill="#FDB232" transform="translate(324.60546875,310.84375)"/>
<path d="M0 0 C42.15864096 -0.09154718 84.31727045 -0.16203449 126.4759911 -0.20426132 C131.45274423 -0.20926417 136.42949716 -0.21444146 141.40625 -0.21972656 C142.89242843 -0.22130043 142.89242843 -0.22130043 144.40863067 -0.22290608 C160.45317524 -0.24031328 176.49766251 -0.27185271 192.54217309 -0.30861118 C209.00422879 -0.34601183 225.46625448 -0.368234 241.92835093 -0.37635398 C252.08708944 -0.38184356 262.24566598 -0.39918455 272.40435463 -0.43166587 C279.36970766 -0.45280292 286.33497689 -0.45920187 293.30035967 -0.45400551 C297.31959072 -0.45144247 301.33853865 -0.45538287 305.35771942 -0.4768219 C309.03939635 -0.49631708 312.72060032 -0.49725112 316.40229923 -0.48359558 C318.36085343 -0.48111081 320.31940225 -0.49833625 322.27787542 -0.51632524 C330.19975089 -0.46251211 336.18246862 0.22593197 342.05859375 6.03515625 C342.51363281 6.70417969 342.96867187 7.37320313 343.4375 8.0625 C343.91058594 8.73410156 344.38367188 9.40570313 344.87109375 10.09765625 C346.75144379 13.2662738 347.12613213 15.86757844 347.13422108 19.46978283 C347.13867892 20.39043882 347.14313676 21.3110948 347.14772969 22.25964946 C347.14745315 23.77917176 347.14745315 23.77917176 347.14717102 25.32939148 C347.15084771 26.40436805 347.1545244 27.47934462 347.1583125 28.58689624 C347.16937021 32.20726828 347.17319672 35.82761163 347.17700195 39.44799805 C347.18326501 42.03641349 347.18991166 44.62482803 347.19691467 47.21324158 C347.21667664 54.99407256 347.22674509 62.77490483 347.23564246 70.55575463 C347.24002593 74.2202284 347.2453926 77.88470073 347.25063133 81.54917336 C347.26764358 93.7314038 347.28213755 105.91363334 347.28938007 118.09587383 C347.29128996 121.2571939 347.29321029 124.41851395 347.29516602 127.57983398 C347.29564976 128.3655613 347.2961335 129.15128861 347.2966319 129.96082584 C347.30493143 142.6878662 347.33026704 155.41481255 347.36274669 168.14181187 C347.39582356 181.20941077 347.41382941 194.2769619 347.41702431 207.34460288 C347.41918887 214.68117179 347.42792939 222.01760361 347.45348549 229.3541317 C347.47747259 236.25617279 347.4810142 243.15796346 347.47072411 250.06003761 C347.47022774 252.59324081 347.47657768 255.126456 347.49028015 257.65962219 C347.50794357 261.11860847 347.50091918 264.57670374 347.48774719 268.03569031 C347.50420106 269.5384822 347.50420106 269.5384822 347.52098733 271.07163352 C347.45540448 278.20776289 346.09174574 283.87264875 340.96484375 289.05859375 C340.29582031 289.51363281 339.62679688 289.96867187 338.9375 290.4375 C338.26589844 290.91058594 337.59429687 291.38367188 336.90234375 291.87109375 C333.8119037 293.70505098 331.28439958 294.12258439 327.76953125 294.09765625 C326.96708984 294.09443359 326.16464844 294.09121094 325.33789062 294.08789062 C324.50451172 294.07951172 323.67113281 294.07113281 322.8125 294.0625 C321.96751953 294.05798828 321.12253906 294.05347656 320.25195312 294.04882812 C318.16793845 294.03705403 316.08396023 294.0191189 314 294 C313.82984375 294.61746094 313.6596875 295.23492187 313.484375 295.87109375 C311.77814576 301.8338204 309.66418883 307.40114631 307 313 C306.01 312.154375 305.02 311.30875 304 310.4375 C303.02933594 309.61185547 303.02933594 309.61185547 302.0390625 308.76953125 C300.74247985 307.64433596 299.46387385 306.4978207 298.2109375 305.32421875 C290.97601551 298.62806754 282.56699244 293.74398878 273.77880859 289.37548828 C272.8826181 288.92940216 271.98642761 288.48331604 271.06307983 288.02371216 C270.38226349 287.68588715 269.70144714 287.34806213 269 287 C268.99945523 285.95840131 268.99891047 284.91680262 268.99834919 283.84364033 C268.9839619 258.51411004 268.94097902 233.18475177 268.86790943 207.85532093 C268.83323758 195.60624507 268.80790102 183.35728201 268.80444336 171.1081543 C268.80140653 160.43338754 268.78095383 149.75882156 268.73947543 139.08413237 C268.71811835 133.43048083 268.70555882 127.7771149 268.71384621 122.12342262 C268.72136906 116.80373028 268.70563516 111.4846175 268.67193985 106.16503143 C268.6636853 104.211117 268.66398156 102.25714516 268.67340279 100.30323601 C268.68498554 97.63744961 268.66596751 94.97357506 268.63923645 92.30793762 C268.64990971 91.53263933 268.66058297 90.75734103 268.67157966 89.95854884 C268.60442469 86.37516577 268.06565873 84.11097043 266.23497868 81.01692104 C261.1965672 77.8756088 256.42412583 78.33937727 250.60110474 78.42132568 C249.32770324 78.4193201 248.05430174 78.41731452 246.74231231 78.41524816 C243.20951294 78.41020263 239.67751527 78.43617801 236.14487243 78.46706033 C232.33432094 78.49482843 228.52377132 78.49355594 224.71313477 78.49543762 C218.1100369 78.50228769 211.5071851 78.52640232 204.90417862 78.56124115 C195.34971451 78.61083969 185.79544843 78.62439228 176.24086808 78.62738219 C160.72938779 78.63237952 145.21797983 78.65306411 129.70654297 78.68994141 C128.77813484 78.69213909 127.84972671 78.69433678 126.893185 78.69660106 C116.53561853 78.72159683 106.17808333 78.75198988 95.82055664 78.7901001 C94.88952131 78.79352138 93.95848599 78.79694267 92.99923747 78.80046763 C91.60410778 78.80560426 91.60410778 78.80560426 90.18079364 78.81084466 C88.30526219 78.81774937 86.42973071 78.82464881 84.55419922 78.83154297 C83.62752804 78.83495822 82.70085686 78.83837347 81.74610473 78.84189221 C66.29522655 78.89791436 50.84452696 78.9192234 35.3935498 78.91247773 C25.86292547 78.90974643 16.33327901 78.93658041 6.80287026 79.0013853 C0.27245426 79.04354598 -6.25749954 79.05338801 -12.78803121 79.03777662 C-16.55651863 79.02984221 -20.32347955 79.03669839 -24.0917244 79.08293343 C-28.17787831 79.13274847 -32.26076652 79.11300434 -36.34713745 79.08660889 C-37.53731283 79.11234411 -38.72748821 79.13807933 -39.95372951 79.16459441 C-47.76841761 79.03417317 -47.76841761 79.03417317 -51.26326394 76.09951258 C-55.8881773 70.37488803 -58.14056459 65.0347704 -58.625 57.6875 C-58.69976562 56.61886719 -58.77453125 55.55023438 -58.8515625 54.44921875 C-58.90054688 53.64097656 -58.94953125 52.83273438 -59 52 C-16.0769941 51.90845463 26.84600054 51.83796643 69.76908472 51.79573868 C74.8359655 51.79073583 79.90284608 51.78555854 84.96972656 51.78027344 C85.97845587 51.7792242 86.98718518 51.77817495 88.02648205 51.77709392 C104.36201977 51.7596863 120.69750121 51.72814662 137.03300554 51.69138882 C153.79338458 51.65398936 170.55373414 51.63176625 187.31415319 51.62364602 C197.65714723 51.61815619 207.9999822 51.60081385 218.34292728 51.56833413 C225.43442868 51.54719855 232.52584779 51.5407978 239.61737841 51.54599449 C243.70951707 51.54855776 247.80137767 51.5446145 251.89346695 51.5231781 C255.64175645 51.50368619 259.38958136 51.50274681 263.13789243 51.51640442 C265.13223549 51.51888979 267.12657324 51.50166146 269.12083673 51.48367476 C276.67562339 51.53409542 282.69634838 51.98807936 288.47663546 57.37653899 C293.68344998 63.21710762 295.44911029 68.62347308 295.36076355 76.31430054 C295.36332682 77.13613756 295.3658901 77.95797458 295.36853105 78.80471575 C295.37346053 81.5501878 295.35698992 84.29510622 295.34057617 87.04052734 C295.33972972 89.01183052 295.3402054 90.98313463 295.34190369 92.95443726 C295.34276435 98.30110183 295.32512693 103.64756446 295.30418181 108.99418211 C295.28542697 114.5835642 295.28366551 120.17295092 295.28010559 125.76235962 C295.27078164 136.34449548 295.24616305 146.92653834 295.21605712 157.50863326 C295.18252407 169.55689767 295.16602985 181.60516652 295.15097082 193.65346599 C295.11961386 218.43569554 295.06684648 243.21784256 295 268 C298.25100777 267.9189487 301.50016335 267.80612351 304.75 267.6875 C305.67039062 267.66494141 306.59078125 267.64238281 307.5390625 267.61914062 C308.87324219 267.5659668 308.87324219 267.5659668 310.234375 267.51171875 C311.45979004 267.47244263 311.45979004 267.47244263 312.70996094 267.43237305 C315.52318976 266.90121865 316.92271262 265.94882205 319 264 C320.33372752 259.99881745 320.15153707 256.15159073 320.15390015 251.97915649 C320.1582824 251.04498756 320.16266465 250.11081862 320.1671797 249.14834154 C320.1805802 246.00465407 320.18674932 242.86099464 320.19287109 239.71728516 C320.2007709 237.468825 320.20903978 235.22036611 320.21765137 232.97190857 C320.24387956 225.57763888 320.25917711 218.1833635 320.2734375 210.7890625 C320.27879634 208.24616873 320.28417385 205.70327501 320.28956985 203.16038132 C320.31119733 192.58658905 320.33008731 182.01279813 320.34119225 171.43898964 C320.34412194 168.69565451 320.34708361 165.95231942 320.35009766 163.20898438 C320.35121673 162.18622029 320.35121673 162.18622029 320.35235842 161.1427943 C320.36501826 150.09175727 320.39825103 139.0408809 320.43989949 127.98991902 C320.48230346 116.64559794 320.50547754 105.30138901 320.51111281 93.9569782 C320.5147729 87.58680969 320.52686476 81.21691372 320.55921555 74.84682083 C320.58920155 68.85661687 320.59564169 62.86685174 320.58383179 56.87658882 C320.58361028 54.6759166 320.59197883 52.47522456 320.60948563 50.27462196 C320.63206009 47.27415133 320.62393644 44.27528784 320.60800171 41.27481079 C320.6218838 40.4003942 320.63576588 39.5259776 320.65006864 38.62506354 C320.59794791 34.65237531 320.25810562 32.44317066 318.22743988 28.95649147 C313.21621067 25.91865728 308.50565674 26.33929831 302.75296021 26.42132568 C301.49589291 26.4193201 300.23882562 26.41731452 298.94366539 26.41524816 C295.45646808 26.41020304 291.9700831 26.43617641 288.48304439 26.46706033 C284.72157349 26.49483016 280.96010445 26.49355599 277.19854736 26.49543762 C270.68057172 26.50228748 264.16284537 26.5264014 257.64496231 26.56124115 C248.21357421 26.61084145 238.78238672 26.62439235 229.35088085 26.62738219 C214.03905725 26.63237945 198.72730694 26.65306361 183.41552734 26.68994141 C182.04085884 26.69323794 182.04085884 26.69323794 180.63841926 26.69660106 C170.41435837 26.72159672 160.19032917 26.75198971 149.96630859 26.7901001 C149.04727786 26.79352138 148.12824712 26.79694267 147.18136697 26.80046763 C145.80422564 26.80560426 145.80422564 26.80560426 144.39926326 26.81084466 C142.54791381 26.81774937 140.69656434 26.82464881 138.84521484 26.83154297 C137.93049165 26.83495822 137.01576845 26.83837347 136.07332636 26.84189221 C120.82133002 26.89791555 105.56951459 26.91922327 90.31741798 26.91247773 C80.9096263 26.90974652 71.5028253 26.93657788 62.09525202 27.0013853 C55.64893365 27.04354795 49.20308351 27.05338736 42.75664796 27.03777662 C39.03675921 27.02984267 35.31841692 27.0366944 31.59877396 27.08293343 C27.56515573 27.13275479 23.53484525 27.11300274 19.50100708 27.08660889 C17.7390897 27.12521172 17.7390897 27.12521172 15.94157803 27.16459441 C8.17928527 27.03338203 8.17928527 27.03338203 4.71082282 23.99404383 C0.7130108 18.94516585 -1.14062225 15.5066774 -1.125 9.0625 C-1.12886719 7.47115234 -1.12886719 7.47115234 -1.1328125 5.84765625 C-1 3 -1 3 0 0 Z " fill="#48CD8A" transform="translate(165,31)"/>
<path d="M0 0 C11.11992748 -0.32822807 22.58813796 0.57089385 32.95703125 4.90625 C39.3161203 7.21864602 45.12099679 4.75852627 51.35546875 2.875 C76.60441498 -3.09647314 104.69358369 1.78025924 126.6484375 15.3046875 C133.25388319 19.7584304 139.25678347 24.72244001 144.7265625 30.515625 C146.43679802 32.27225635 146.43679802 32.27225635 148.7890625 33.94140625 C162.78377271 45.83795901 170.36626574 68.40892683 172.39453125 86.15625 C174.52135197 115.86151485 167.00909439 142.19199355 147.43115234 164.80322266 C143.69682305 169.0051041 143.69682305 169.0051041 141.39453125 170.15625 C141.39453125 169.49625 141.39453125 168.83625 141.39453125 168.15625 C140.24984375 168.0015625 140.24984375 168.0015625 139.08203125 167.84375 C136.11118514 167.08376611 135.12040082 166.65876088 133.39453125 164.15625 C132.5703125 161.328125 132.5703125 161.328125 132.39453125 158.15625 C133.984375 155.83984375 133.984375 155.83984375 136.33203125 153.59375 C152.74095421 136.4968753 158.12696917 115.02246 157.69921875 91.92578125 C156.8427085 70.28297063 145.609384 50.41816316 130.22265625 35.57421875 C111.37998576 19.464256 88.77623508 13.59045251 64.39453125 15.15625 C62.04154071 15.4208624 59.73117598 15.7662808 57.39453125 16.15625 C58.29816406 16.91550781 59.20179688 17.67476563 60.1328125 18.45703125 C61.32427938 19.46086555 62.51568227 20.46477578 63.70703125 21.46875 C64.59938477 22.21801758 64.59938477 22.21801758 65.50976562 22.98242188 C66.08662109 23.46904297 66.66347656 23.95566406 67.2578125 24.45703125 C67.78673096 24.90216064 68.31564941 25.34729004 68.8605957 25.8059082 C70.39453125 27.15625 70.39453125 27.15625 71.84106445 28.77661133 C73.74216943 30.46498855 74.88062064 30.64891652 77.38671875 30.9296875 C78.16789063 31.02926758 78.9490625 31.12884766 79.75390625 31.23144531 C80.5840625 31.33038086 81.41421875 31.42931641 82.26953125 31.53125 C100.98373544 34.15321743 116.4192247 42.46299112 128.39453125 57.15625 C134.36468985 65.34671552 137.9259729 74.36569653 140.39453125 84.15625 C140.58660156 84.775 140.77867187 85.39375 140.9765625 86.03125 C144.11715216 101.99836006 140.12471901 120.61729473 131.46875 134.171875 C128.12693326 138.87936827 124.69678288 143.28422354 120.39453125 147.15625 C119.86988281 147.68476563 119.34523438 148.21328125 118.8046875 148.7578125 C107.22293556 159.8743355 92.05342245 163.98469398 76.51953125 165.62890625 C73.3031904 165.86119878 73.3031904 165.86119878 71.39453125 168.15625 C68.04907305 167.97377046 65.38387891 167.73070993 62.45703125 166.03125 C61.17409878 163.76725152 60.61377574 161.83188232 60.72265625 159.21875 C61.97183994 155.38404657 65.13055613 152.86768645 67.87890625 150.015625 C83.14924198 132.65865954 86.48037269 110.15005965 85.58105469 87.86035156 C84.3995966 70.73230213 74.64150441 52.04301807 62.39453125 40.15625 C62.39453125 39.49625 62.39453125 38.83625 62.39453125 38.15625 C61.79382813 37.88039063 61.193125 37.60453125 60.57421875 37.3203125 C58.39453125 36.15625 58.39453125 36.15625 55.51953125 33.53125 C45.9575151 25.21026148 34.47443648 20.48631316 22.39453125 17.15625 C21.50765625 16.91003906 20.62078125 16.66382813 19.70703125 16.41015625 C13.53050893 15.01078791 7.32488872 14.95878052 1.01953125 14.90625 C-0.28407349 14.8921106 -0.28407349 14.8921106 -1.61401367 14.87768555 C-6.05037591 14.90051121 -9.5751833 15.06647236 -13.60546875 17.15625 C-12.94160156 17.67574219 -12.27773438 18.19523437 -11.59375 18.73046875 C-10.26923828 19.77654297 -10.26923828 19.77654297 -8.91796875 20.84375 C-8.04785156 21.52824219 -7.17773438 22.21273438 -6.28125 22.91796875 C-3.60546875 25.15625 -3.60546875 25.15625 -1.2734375 27.86328125 C2.15408158 30.80904069 5.06509847 30.94837506 9.39453125 31.15625 C17.40600483 31.82717006 24.07590519 33.7172621 31.39453125 37.15625 C32.338125 37.58808594 33.28171875 38.01992188 34.25390625 38.46484375 C50.6766283 46.65300884 60.88199324 61.06404758 67.43359375 77.8125 C72.91669516 95.64539057 69.87834972 114.54033295 61.70703125 130.90625 C52.42507513 146.596054 38.75565088 158.32017091 20.9140625 163.0859375 C15.71325851 164.25653647 10.58190361 165.20190236 5.26953125 165.65625 C1.54855565 166.13637588 0.00288852 166.54789273 -2.60546875 169.15625 C-8.35546875 166.53125 -8.35546875 166.53125 -10.60546875 163.15625 C-11.015625 160.81640625 -11.015625 160.81640625 -10.60546875 158.15625 C-8.6640625 155.46484375 -8.6640625 155.46484375 -6.04296875 152.59375 C11.6178286 132.35871982 14.85793979 109.53920364 13.15625 83.51171875 C10.60377947 64.66468888 -1.06162993 45.26507022 -15.828125 33.53125 C-35.31518232 18.72021037 -58.69359448 12.27790122 -83.01416016 15.47265625 C-90.8952811 16.91098264 -98.21313674 19.50934415 -105.2734375 23.30078125 C-108.15256042 24.35694192 -109.71326933 24.08116656 -112.60546875 23.15625 C-116.01080885 19.99414848 -116.0450482 16.60847994 -116.60546875 12.15625 C-100.55578517 4.72206916 -86.23384518 0.98445871 -68.48046875 0.90625 C-66.75957031 0.8753125 -66.75957031 0.8753125 -65.00390625 0.84375 C-55.72387074 0.80194804 -47.20636546 2.17900502 -38.44360352 5.27246094 C-32.66160711 7.07296218 -26.93370871 4.77639917 -21.29296875 3.15625 C-14.08621647 1.17851341 -7.44110625 0.32247481 0 0 Z " fill="#FEDC40" transform="translate(324.60546875,310.84375)"/>
<path d="M0 0 C13.95480585 10.25259503 23.70929151 25.31457973 26.68652344 42.55126953 C28.0730126 63.96412417 25.04174193 82.57928246 10.78027344 99.30908203 C-1.6198738 112.58834419 -17.14114676 120.5638338 -35.43457031 121.75439453 C-54.07255751 122.01782898 -70.84055954 117.03048894 -85.07910156 104.72705078 C-97.0164368 93.10275755 -106.02580807 77.85098887 -106.71191406 60.86767578 C-106.72488533 58.94973498 -106.71671001 57.03154638 -106.68847656 55.11376953 C-106.6776001 54.10386963 -106.66672363 53.09396973 -106.65551758 52.0534668 C-106.24159592 32.6959911 -98.09544605 16.82917057 -84.25097656 3.42626953 C-60.27711999 -16.88777017 -25.49118295 -18.097413 0 0 Z " fill="#FEDC3F" transform="translate(295.3134765625,354.44873046875)"/>
<path d="M0 0 C39.02485282 -0.0915142 78.04969168 -0.1620177 117.07463033 -0.20426132 C121.67971792 -0.20926427 126.2848053 -0.21444155 130.88989258 -0.21972656 C131.80669976 -0.2207758 132.72350694 -0.22182505 133.66809616 -0.22290608 C148.52159569 -0.24032112 163.37503343 -0.27186486 178.22849628 -0.30861118 C193.46447376 -0.34599004 208.70041883 -0.36822938 223.93644029 -0.37635398 C233.34127566 -0.3818481 242.74593639 -0.39921359 252.15071801 -0.43166587 C258.59603784 -0.45277606 265.04126711 -0.45920799 271.48661902 -0.45400551 C275.20777296 -0.45143825 278.92862127 -0.45543048 282.64972115 -0.4768219 C286.68128871 -0.49982928 290.71220215 -0.49197173 294.74382019 -0.48101807 C295.92377711 -0.49266943 297.10373403 -0.5043208 298.31944722 -0.51632524 C306.22991043 -0.45795676 306.22991043 -0.45795676 310.20351124 1.90506363 C313.68603375 5.96613166 313.14547444 9.77912836 313.14044189 14.90058899 C313.14489858 16.30056076 313.14489858 16.30056076 313.1494453 17.72881478 C313.15815987 20.87561527 313.15964287 24.02237783 313.16113281 27.16918945 C313.16575903 29.41750165 313.17078342 31.66581305 313.17617798 33.91412354 C313.18932281 40.03604611 313.19575098 46.15795771 313.20018864 52.27989221 C313.20311598 56.10151013 313.20722014 59.92312503 313.21169281 63.74474144 C313.22380469 74.32278601 313.23418575 84.90082795 313.2375679 95.47887897 C313.23778747 96.1561339 313.23800703 96.83338882 313.23823325 97.53116662 C313.23845153 98.21005622 313.23866981 98.88894581 313.2388947 99.58840781 C313.23933817 100.9641306 313.23978473 102.33985339 313.24023438 103.71557617 C313.2404558 104.3979844 313.24067723 105.08039263 313.24090537 105.78347989 C313.2448534 116.84099887 313.26230688 127.89845195 313.2855939 138.95594547 C313.30930175 150.30475248 313.32151146 161.65351528 313.32293582 173.00235146 C313.32398569 179.37581089 313.32993208 185.74917742 313.34775543 192.12261391 C313.3641916 198.11683145 313.36641328 204.1108858 313.35761642 210.1051178 C313.35684366 212.30738956 313.36122009 214.50966993 313.37107468 216.71191978 C313.38372355 219.71429612 313.37795572 222.71608835 313.36749268 225.71846008 C313.37957728 227.03110815 313.37957728 227.03110815 313.39190602 228.37027436 C313.35355396 233.06353338 313.08310351 236.21235816 310 240 C306.79593538 242.13604308 306.00399253 242.24208908 302.33203125 242.1953125 C301.43935547 242.18886719 300.54667969 242.18242187 299.62695312 242.17578125 C298.23379883 242.15064453 298.23379883 242.15064453 296.8125 242.125 C295.87212891 242.11597656 294.93175781 242.10695313 293.96289062 242.09765625 C291.64167032 242.07409056 289.32096356 242.04119116 287 242 C286.99945523 240.97754968 286.99891047 239.95509935 286.99834919 238.90166569 C286.98394811 214.01302649 286.94090795 189.12456208 286.86790943 164.2360239 C286.83326943 152.2000533 286.80790519 140.16419711 286.80444336 128.12817383 C286.80140211 117.6364842 286.78088976 107.1449984 286.73947543 96.65338749 C286.71815861 91.09909388 286.7055382 85.54508995 286.71384621 79.99075508 C286.72139447 74.75969133 286.70553146 69.52921414 286.67193985 64.29825783 C286.66371602 62.38150002 286.66394547 60.46468379 286.67340279 58.54793167 C287.12060279 44.83025073 287.12060279 44.83025073 281 33 C276.57913788 29.02171327 272.50027218 26.87237331 266.52463055 26.88088799 C265.60274116 26.87973043 264.68085178 26.87857288 263.73102635 26.87738025 C262.20945769 26.88307535 262.20945769 26.88307535 260.65715027 26.8888855 C259.04256871 26.88888697 259.04256871 26.88888697 257.39536935 26.88888848 C253.7703155 26.88992576 250.14530878 26.89795159 246.52026367 26.90576172 C243.92860445 26.90763997 241.3369448 26.9089854 238.74528503 26.90983582 C233.880043 26.91168642 229.01480729 26.91521355 224.14956794 26.92065342 C214.58873257 26.93110368 205.02795138 26.92686781 195.46711731 26.91702271 C193.96231038 26.91553512 192.45750344 26.91404926 190.9526965 26.91256511 C187.90596192 26.90951433 184.85922742 26.90638277 181.81249297 26.90320611 C173.97843029 26.89508553 166.14436749 26.88764721 158.31030273 26.88183594 C157.5240508 26.881247 156.73779887 26.88065806 155.92772112 26.88005127 C143.18640186 26.87118569 130.44518499 26.88409129 117.70388254 26.90412866 C104.6249223 26.92410538 91.54616057 26.91748787 78.46722013 26.88698208 C70.39869041 26.86906835 62.33073617 26.87241361 54.26224194 26.90296634 C48.07920032 26.92423623 41.89674559 26.90890313 35.71374702 26.87986183 C33.17648683 26.873755 30.63916552 26.87965974 28.10196686 26.89835548 C24.64160699 26.922096 21.18405131 26.90297225 17.72380066 26.87301636 C16.21227025 26.89878795 16.21227025 26.89878795 14.67020386 26.92508018 C8.04908347 26.80540713 8.04908347 26.80540713 5.07749808 24.52404809 C1.50707157 20.50064261 -1.01143995 16.79225843 -0.9765625 11.328125 C-0.87090659 9.96780514 -0.75338968 8.60836276 -0.625 7.25 C-0.56828125 6.55261719 -0.5115625 5.85523438 -0.453125 5.13671875 C-0.31232128 3.42360688 -0.15754028 1.71165389 0 0 Z " fill="#36B277" transform="translate(173,57)"/>
<path d="M0 0 C17.3563125 12.34925211 29.21201531 31.85334874 33.63134766 52.65649414 C34.34653608 57.247644 34.3147663 61.82396137 34.26953125 66.4609375 C34.26131348 67.48058594 34.2530957 68.50023437 34.24462891 69.55078125 C33.95398237 89.10222981 27.87683191 108.10396629 14.08203125 122.4609375 C10.44045286 126.2093576 10.44045286 126.2093576 9.14453125 131.0859375 C9.7634662 134.26523116 9.7634662 134.26523116 12.20703125 136.1484375 C15.36941331 137.27284001 16.86914281 137.19856698 20.01953125 136.1484375 C20.34953125 135.8184375 20.67953125 135.4884375 21.01953125 135.1484375 C23.07868551 134.83490372 25.13885729 134.52690563 27.203125 134.24902344 C41.40652202 132.30875725 55.79535518 128.49031198 66.203125 117.93359375 C68.01953125 116.1484375 68.01953125 116.1484375 70.01953125 116.1484375 C70.39658203 115.313125 70.39658203 115.313125 70.78125 114.4609375 C72.21701417 111.7796366 73.96409395 109.54854049 75.83203125 107.1484375 C86.45852647 92.61401016 90.31998847 73.90273534 87.7265625 56.14208984 C85.06511652 41.85112655 78.25584059 30.27699621 68.01953125 20.1484375 C67.42914063 19.52453125 66.83875 18.900625 66.23046875 18.2578125 C55.20217361 7.47243135 39.59282826 2.68108946 24.51953125 1.8984375 C20.19653045 0.97208019 18.83014158 -0.64790869 15.9609375 -3.86328125 C12.45220517 -7.45673146 8.1926048 -10.08910536 4.01953125 -12.8515625 C4.34953125 -13.5115625 4.67953125 -14.1715625 5.01953125 -14.8515625 C27.41734572 -19.4620024 50.69954368 -14.18384921 69.64453125 -1.7265625 C87.76108641 11.47516078 100.95807485 30.01286898 105.55078125 52.265625 C107.10048197 65.10231261 107.43349811 78.8726127 103.01953125 91.1484375 C102.60091195 92.43077739 102.1829946 93.71334657 101.765625 94.99609375 C97.99431061 106.15664545 92.75258462 115.40020045 84.45703125 123.8984375 C81.71325098 126.76649226 81.71325098 126.76649226 80.7421875 130.48046875 C80.9885168 132.94334807 80.9885168 132.94334807 82.01953125 136.1484375 C84.32953125 136.8084375 86.63953125 137.4684375 89.01953125 138.1484375 C89.01953125 139.1384375 89.01953125 140.1284375 89.01953125 141.1484375 C87.20451528 142.87163142 85.45120515 144.3446646 83.45703125 145.8359375 C82.58171753 146.49468872 82.58171753 146.49468872 81.6887207 147.16674805 C64.27584886 159.92448799 44.07183243 166.55359356 22.45703125 166.5234375 C20.90036743 166.52428345 20.90036743 166.52428345 19.31225586 166.52514648 C11.21297658 166.41119491 3.79281719 165.22195922 -4.0078125 163.12109375 C-11.36163102 161.21458215 -17.15751893 160.7521963 -24.54296875 163.0234375 C-44.10375972 168.94342292 -67.42144041 167.93720813 -85.98046875 159.1484375 C-83.37982654 156.54779529 -80.35608258 155.15205461 -77.10546875 153.5234375 C-76.48027344 153.19859375 -75.85507812 152.87375 -75.2109375 152.5390625 C-70.92106316 150.38052108 -68.06689657 149.77704731 -63.28125 150.62890625 C-41.30132843 154.08846787 -17.91729552 148.151924 0.01953125 135.1484375 C2.44177655 133.22078679 4.72942425 131.23497943 7.01953125 129.1484375 C5.53453125 128.1584375 5.53453125 128.1584375 4.01953125 127.1484375 C0.81551998 124.47842811 -0.77931943 122.88946812 -1.8828125 118.82421875 C-2.00578807 114.19541837 -0.9086706 112.97611769 2.08203125 109.5234375 C6.97119277 103.5409232 10.19686492 97.36794945 13.01953125 90.1484375 C13.35984375 89.32601562 13.70015625 88.50359375 14.05078125 87.65625 C19.49925282 71.8657722 16.75502798 52.84157663 9.89453125 38.0859375 C0.84270896 20.34611214 -12.97501384 11.07059037 -30.91015625 3.9921875 C-34.06287032 3.12579279 -36.90049081 2.86275055 -40.14672852 2.66894531 C-51.21762713 1.93961453 -51.21762713 1.93961453 -55.54296875 -2.6015625 C-56.11144531 -3.30796875 -56.67992187 -4.014375 -57.265625 -4.7421875 C-59.98757343 -8.09037008 -63.47031794 -10.38698853 -66.98046875 -12.8515625 C-52.33656131 -27.49546994 -13.73686895 -9.42385547 0 0 Z " fill="#FEB432" transform="translate(376.98046875,340.8515625)"/>
<path d="M0 0 C0.84079102 0.22026855 1.68158203 0.44053711 2.54785156 0.66748047 C16.87483133 4.48634441 33.03324399 9.02493299 45 18 C-17.37 18 -79.74 18 -144 18 C-144.81159949 32.04529082 -144.81159949 32.04529082 -137.74609375 41.41796875 C-135.38182913 44.91411845 -135.76061026 47.14982318 -136.0625 51.3125 C-136.35720345 57.9441328 -135.30783523 61.93503009 -131 67 C-130.01 68.485 -130.01 68.485 -129 70 C-153.42 70 -177.84 70 -203 70 C-202.67 70.66 -202.34 71.32 -202 72 C-201.70973453 74.08071488 -201.44221922 76.16463514 -201.1875 78.25 C-200.38311301 83.70062228 -199.47205555 86.79144782 -196 91 C-195.01 92.65 -194.02 94.3 -193 96 C-216.43 96 -239.86 96 -264 96 C-262.13443327 91.33608317 -260.04553735 88.36677525 -256.8125 84.6875 C-256.35552734 84.15705078 -255.89855469 83.62660156 -255.42773438 83.08007812 C-254.47025103 81.97120351 -253.50857783 80.86593589 -252.54321289 79.76391602 C-251.48184783 78.55075946 -250.42667326 77.33216791 -249.37670898 76.10913086 C-238.64032616 63.6630448 -226.96151598 51.91424549 -213.66357422 42.21484375 C-211.99218631 40.99429397 -210.34162497 39.74897191 -208.69140625 38.5 C-149.69266616 -5.54506321 -70.72136894 -18.83850172 0 0 Z " fill="#279B61" transform="translate(309,13)"/>
<path d="M0 0 C42.24 0 84.48 0 128 0 C126.68 6.6 125.36 13.2 124 20 C123.63939131 24.11591298 123.36995017 27.85771046 123.4375 31.9375 C123.44845703 32.93273682 123.45941406 33.92797363 123.47070312 34.95336914 C124.07804899 56.22228383 131.40286606 76.58520902 145 93 C145.69867188 93.84949219 146.39734375 94.69898438 147.1171875 95.57421875 C151.82624847 101.04577891 156.94219381 105.63553959 162.6171875 110.08984375 C164.55892632 111.64641799 166.26522422 113.22729363 168 115 C128.16931249 112.08542902 87.55115368 90.92435235 57 66 C56.01644531 65.22011719 55.03289062 64.44023437 54.01953125 63.63671875 C38.77368198 51.2120279 24.40570728 37.06011321 13 21 C12.51144531 20.31856934 12.02289063 19.63713867 11.51953125 18.93505859 C9.97999759 16.77748166 8.45464964 14.61086822 6.9375 12.4375 C6.23838501 11.43638184 6.23838501 11.43638184 5.52514648 10.41503906 C5.09274658 9.78178711 4.66034668 9.14853516 4.21484375 8.49609375 C3.83448975 7.94107178 3.45413574 7.3860498 3.06225586 6.81420898 C2 5 2 5 0 0 Z " fill="#3B3867" transform="translate(35,377)"/>
<path d="M0 0 C1.46096745 2.9219349 1.38530499 5.81634073 1.6875 9.0625 C2.74847705 18.14623725 6.07052212 23.59995549 12.875 29.5625 C13.90625 30.366875 14.9375 31.17125 16 32 C15.56084215 34.98627336 14.95160272 37.08793836 13.484375 39.75390625 C10.6620239 45.92594248 11.06850987 53.16869239 12.65625 59.69921875 C15.37290117 66.596234 19.64833921 70.39265306 26.25 73.55859375 C29.81207961 75.09781134 33.39669374 76.56030427 37 78 C38.75446842 78.73948669 40.50529987 79.48775237 42.25 80.25 C42.93578125 80.54390625 43.6215625 80.8378125 44.328125 81.140625 C46 82 46 82 48 84 C48.46768364 88.95744661 48.14407255 92.06990931 45 96 C40.16123689 99.10288397 34.53101724 98.51433988 29 98 C26.9697411 97.06295743 24.96303418 96.07074592 23 95 C19.48891675 94.47232275 16.24899772 94.37550114 13 96 C10.93844297 100.12311407 11.583792 104.751376 13 109 C15.55834786 110.26332576 18.06936334 111.01851608 20.82421875 111.75390625 C23.79791465 112.59368122 26.33017725 113.43387849 29 115 C30.1256025 117.35077753 30.41441982 119.29090048 30.69921875 121.87109375 C30.87025931 124.21617015 30.87025931 124.21617015 32.75 126.5625 C35.72776715 128.46496235 37.52264464 128.43466942 41 128 C42.35024144 127.3682799 43.68765286 126.70708359 45 126 C45.13535156 126.70125 45.27070313 127.4025 45.41015625 128.125 C46.87907671 134.59880514 48.75865334 138.64574763 53.4765625 143.34375 C55 145 55 145 56 148 C33.75671017 152.01814268 13.50211922 148.96256864 -6.01953125 137.07421875 C-24.4533239 124.24545873 -36.59151143 105.91790926 -41 84 C-44.69898119 61.53303372 -39.30474119 40.05035751 -26.16748047 21.59423828 C-21.31269161 14.96484238 -9.29219109 0 0 0 Z " fill="#1C8C51" transform="translate(143,160)"/>
<path d="M0 0 C13.09788404 10.08822904 22.2087472 24.93501905 25.04296875 41.34375 C26.42063691 62.62037352 23.4709583 81.91987566 9.13671875 98.65234375 C6.75007353 100.58036125 5.70557867 100.97744762 2.66796875 100.84375 C-4.48773085 99.07339525 -11.00410166 95.42818901 -15.01953125 89.15625 C-17.06760374 85.46097331 -18.09245752 82.41465298 -17.9140625 78.17578125 C-17.89279297 77.36431641 -17.87152344 76.55285156 -17.84960938 75.71679688 C-17.79682132 74.02886672 -17.73199481 72.34126393 -17.65429688 70.65429688 C-17.49512159 63.17305845 -19.53901177 57.68083128 -24.70703125 52.21875 C-28.96574071 48.78941721 -34.13259271 47.20451307 -39.27050781 45.52294922 C-43.41143908 44.12976646 -46.24181023 42.82198249 -48.95703125 39.34375 C-49.45703125 36.84375 -49.45703125 36.84375 -48.95703125 34.34375 C-46.77661253 31.53594665 -45.63725083 30.45280694 -42.08203125 29.8828125 C-40.53515625 29.92535156 -40.53515625 29.92535156 -38.95703125 29.96875 C-37.92578125 29.98164063 -36.89453125 29.99453125 -35.83203125 30.0078125 C-33.00471518 30.33817824 -31.4220058 31.01485251 -28.95703125 32.34375 C-24.33395877 32.80629765 -24.33395877 32.80629765 -20.08203125 31.28125 C-18.39296614 28.37230454 -18.19437897 25.66661813 -17.95703125 22.34375 C-18.28703125 21.35375 -18.61703125 20.36375 -18.95703125 19.34375 C-21.32117418 18.235558 -23.74758152 17.41465181 -26.21875 16.578125 C-28.64321605 15.65674982 -30.78479726 14.7657345 -32.95703125 13.34375 C-34.26953125 9.78125 -34.26953125 9.78125 -34.95703125 6.34375 C-36.51501007 4.19592329 -36.51501007 4.19592329 -38.95703125 3.34375 C-42.64917736 3.40852449 -44.99355359 3.50873603 -47.83203125 5.96875 C-49.1761786 8.43539087 -49.1761786 8.43539087 -49.20703125 11.84375 C-49.95703125 15.34375 -49.95703125 15.34375 -51.46484375 16.6484375 C-54.19652229 18.21429507 -56.97455724 19.349592 -59.95703125 20.34375 C-62.11328125 19.26953125 -62.11328125 19.26953125 -64.45703125 17.65625 C-65.23046875 17.13675781 -66.00390625 16.61726563 -66.80078125 16.08203125 C-70.21627284 13.32860053 -72.30852758 10.73115752 -72.95703125 6.34375 C-73.02446473 4.26140408 -73.04217597 2.17706443 -73.01953125 0.09375 C-73.00599609 -1.52273438 -73.00599609 -1.52273438 -72.9921875 -3.171875 C-72.98058594 -3.99171875 -72.96898437 -4.8115625 -72.95703125 -5.65625 C-49.39751924 -18.84332199 -21.57381047 -15.85027727 0 0 Z " fill="#FCEBA8" transform="translate(296.95703125,355.65625)"/>
<path d="M0 0 C9.17082849 -0.09273712 18.34149522 -0.16378355 27.51269054 -0.20724869 C31.7714057 -0.22811132 36.02979973 -0.25640431 40.28833008 -0.30175781 C44.3991492 -0.34526351 48.5096597 -0.36914707 52.6206913 -0.37950897 C54.18799001 -0.38689193 55.75527209 -0.40130936 57.32243919 -0.42292023 C59.52026048 -0.45201852 61.71681157 -0.45595354 63.91479492 -0.45410156 C65.16499924 -0.46298401 66.41520355 -0.47186646 67.70329285 -0.48101807 C71.59905533 0.08740735 73.22946152 1.2595971 76 4 C77.44685624 6.89371247 77.12731373 9.40410049 77.12939453 12.63696289 C77.13202301 13.65911644 77.13202301 13.65911644 77.13470459 14.70191956 C77.13911317 16.95885754 77.13618894 19.21571744 77.1328125 21.47265625 C77.13348575 23.03681961 77.13445595 24.60098287 77.13571167 26.16514587 C77.13718723 29.44449865 77.13503834 32.72382421 77.13037109 36.00317383 C77.12466918 40.21576887 77.12795662 44.42830027 77.13394356 48.64089298 C77.13754898 51.87068668 77.13641076 55.10046518 77.13381577 58.33025932 C77.13314669 59.88406825 77.13397425 61.43787853 77.13629532 62.99168587 C77.13882205 65.15863861 77.13498122 67.32548674 77.12939453 69.49243164 C77.12859894 70.7277211 77.12780334 71.96301056 77.12698364 73.23573303 C77 76 77 76 76 77 C58.9546972 78.83933741 42.23718119 75.9450898 28 66 C18.3308166 58.14989277 10.58950983 49.78912098 5.1875 38.5 C4.89705811 37.89510742 4.60661621 37.29021484 4.30737305 36.66699219 C0.40625209 28.06540633 -0.28615931 19.80333534 -0.125 10.4375 C-0.11597656 9.42880859 -0.10695313 8.42011719 -0.09765625 7.38085938 C-0.07433356 4.92031543 -0.04160763 2.46029104 0 0 Z " fill="#279B61" transform="translate(357,109)"/>
<path d="M0 0 C15.6257221 13.31311523 27.50920889 32.36794701 30 53 C30.74097 64.82464633 31.05095125 76.73376955 27 88 C26.5813807 89.28233989 26.16346335 90.56490907 25.74609375 91.84765625 C21.20963646 105.27563349 13.94087675 115.8825535 4 126 C3.38769531 126.62519531 2.77539062 127.25039063 2.14453125 127.89453125 C-12.91272848 142.11706016 -34.38348308 149.05126574 -54.6875 149.25 C-55.48389893 149.25950684 -56.28029785 149.26901367 -57.10083008 149.27880859 C-62.37811881 149.24918248 -66.92728723 148.46094128 -72 147 C-71.28070313 146.45472656 -70.56140625 145.90945313 -69.8203125 145.34765625 C-66.94546957 143.06492317 -66.94546957 143.06492317 -64.5546875 140.30859375 C-57.12487029 132.34807531 -51.28265139 130.73537025 -40.62890625 129.5859375 C-29.502967 128.363107 -17.70883932 122.79054006 -9.81640625 114.78515625 C-8 113 -8 113 -6 113 C-5.74863281 112.443125 -5.49726563 111.88625 -5.23828125 111.3125 C-3.80251708 108.6311991 -2.0554373 106.40010299 -0.1875 104 C10.43899522 89.46557266 14.30045722 70.75429784 11.70703125 52.99365234 C9.04558527 38.70268905 2.23630934 27.12855871 -8 17 C-8.59039062 16.37609375 -9.18078125 15.7521875 -9.7890625 15.109375 C-20.81735764 4.32399385 -36.42670299 -0.46734804 -51.5 -1.25 C-55.8230008 -2.17635731 -57.18938967 -3.79634619 -60.05859375 -7.01171875 C-63.56732608 -10.60516896 -67.82692645 -13.23754286 -72 -16 C-71.67 -16.66 -71.34 -17.32 -71 -18 C-45.98799461 -23.14855357 -19.62850451 -16.07789377 0 0 Z " fill="#FEB432" transform="translate(453,344)"/>
<path d="M0 0 C12.87 0.495 12.87 0.495 26 1 C26.06943066 21.51426642 26.12297553 42.02850456 26.15543652 62.5428648 C26.17090896 72.06792385 26.1920057 81.59290857 26.22631836 91.11791992 C26.25620915 99.41939732 26.27557226 107.72082089 26.28226548 116.02235061 C26.28617829 120.41843281 26.29538175 124.81436103 26.31719017 129.21039391 C26.33755026 133.34799781 26.34383478 137.48538428 26.33932304 141.62303352 C26.34014846 143.14158688 26.34611705 144.66014749 26.35761642 146.17865753 C26.37255359 148.2528507 26.36894984 150.32622406 26.36076355 152.4004364 C26.36352893 153.56097377 26.36629431 154.72151114 26.36914349 155.9172163 C25.95398429 159.38428545 25.08835253 161.2248232 23 164 C20 166 20 166 0 166 C0 111.22 0 56.44 0 0 Z " fill="#36B277" transform="translate(460,133)"/>
<path d="M0 0 C0.07476562 0.60328125 0.14953125 1.2065625 0.2265625 1.828125 C1.12527597 7.45604599 1.12527597 7.45604599 5.125 11.4375 C6.07375 11.953125 7.0225 12.46875 8 13 C8 13.66 8 14.32 8 15 C6.35510438 16.12733353 4.65637008 17.17653603 2.9375 18.1875 C-10.82862849 26.80231859 -19.39590269 40.54338759 -24 56 C-28.18183035 74.73677234 -25.13825269 94.10108408 -14.92578125 110.26171875 C-4.75796403 124.71940611 10.36654213 134.93123697 27.875 138.3125 C46.27511383 140.77062156 64.7241086 137.98394166 79.95703125 126.8359375 C82.35293345 124.93932121 84.69682846 123.00763183 87 121 C87.66 121.33 88.32 121.66 89 122 C89.226875 123.093125 89.45375 124.18625 89.6875 125.3125 C91.06005213 129.1687179 91.30513805 129.58051484 94.625 131.4375 C95.73875 131.953125 96.8525 132.46875 98 133 C87.33416225 147.62743462 68.61149338 153.22728839 51.625 156.6875 C27.91373949 158.73157418 5.58927671 153.19430025 -13 138 C-29.0531869 124.25293334 -39.29619019 105.87619062 -43 85 C-44.42333117 63.89543439 -41.28171069 47.41808763 -31 29 C-30.53980469 28.15824219 -30.07960937 27.31648438 -29.60546875 26.44921875 C-24.71773844 18.37191217 -10.08465319 0 0 0 Z " fill="#FE9100" transform="translate(215,336)"/>
<path d="M0 0 C10.62379692 0.1500151 19.25473526 1.36059842 29 6 C29.94488281 6.433125 30.88976562 6.86625 31.86328125 7.3125 C48.28579835 15.48891587 58.49051246 29.91559576 65.0390625 46.65625 C70.54121058 64.55108674 67.52215226 83.59465528 59.125 99.9375 C58.10926295 101.64073338 57.06773697 103.32887359 56 105 C55.46503906 105.89332031 54.93007813 106.78664063 54.37890625 107.70703125 C50.44198421 113.6260526 50.44198421 113.6260526 46.90625 114.54296875 C39.45857392 114.18894189 32.57273392 109.63705227 27.5 104.4375 C24.87697233 100.17508004 23.73263214 96.70465384 23.8125 91.6875 C23.81894531 90.80449219 23.82539063 89.92148437 23.83203125 89.01171875 C24 86 24 86 24.49609375 82.296875 C27.97171195 55.70698292 22.29884831 30.95952594 7 9 C5.15019188 6.67249418 3.26652227 4.46969 1.21484375 2.3203125 C0 1 0 1 0 0 Z " fill="#FCEBA8" transform="translate(327,342)"/>
<path d="M0 0 C19.3150004 0.57916043 34.26469827 6.33348943 48 20 C48.69996094 20.66515625 49.39992188 21.3303125 50.12109375 22.015625 C61.97133066 34.11996056 67.51179621 50.90035127 67.35424805 67.57080078 C66.80027108 85.07490701 60.64164234 99.49463814 49.484375 112.80859375 C48 114 48 114 44.375 114 C38.02944078 112.91319152 32.27895798 109.82363072 28.0625 104.9375 C24.43748321 99.7745973 23.70376762 96.31792356 23.8125 90 C23.81314453 89.2884375 23.81378906 88.576875 23.81445312 87.84375 C23.8588512 82.55544602 23.8588512 82.55544602 24.4934082 80.05834961 C30.00750357 57.65384934 21.29273863 33.78807552 10.10546875 14.78125 C7.06493643 9.85280546 3.7929563 5.36764665 0 1 C0 0.67 0 0.34 0 0 Z " fill="#FCEBA8" transform="translate(399,342)"/>
<path d="M0 0 C1.26118652 0.33040283 1.26118652 0.33040283 2.54785156 0.66748047 C16.87483133 4.48634441 33.03324399 9.02493299 45 18 C-26.94 18 -98.88 18 -173 18 C-170.14518401 15.85888801 -168.30925695 14.53940268 -165.19140625 13.203125 C-164.08780762 12.72999878 -164.08780762 12.72999878 -162.96191406 12.24731445 C-110.9467156 -9.37275939 -54.77256963 -14.59011842 0 0 Z " fill="#3A3767" transform="translate(309,13)"/>
<path d="M0 0 C16.28889061 12.88323535 28.99841419 31.2688962 31.9375 52.234375 C32.31902999 57.3232328 32.42696322 62.39403507 32.46484375 67.49609375 C32.47898315 68.93251221 32.47898315 68.93251221 32.4934082 70.39794922 C32.44899743 80.18675466 30.97183892 89.27435403 27.15234375 98.30859375 C26.85070312 99.03046875 26.5490625 99.75234375 26.23828125 100.49609375 C23.1075349 107.67019268 18.97506745 113.7344272 14.21484375 119.93359375 C13.51230469 120.85785156 12.80976563 121.78210938 12.0859375 122.734375 C10.48206023 124.81779537 8.86179335 126.88417415 7.21484375 128.93359375 C2.03563986 126.12202593 -1.80790357 123.30692169 -4.09765625 117.74609375 C-3.67632006 112.6057922 -1.35959913 110.61112503 1.9453125 106.796875 C13.97274254 91.62285397 15.6333177 73.5925077 14.21484375 54.93359375 C12.26524404 39.54654134 2.63608774 24.62132884 -9.2265625 14.94140625 C-24.58329862 3.74228414 -41.89416846 -0.67745586 -60.78515625 0.93359375 C-67.10998774 1.95714989 -73.31322539 3.65727637 -79.015625 6.6015625 C-81.78515625 7.93359375 -81.78515625 7.93359375 -84.91015625 7.43359375 C-88.35926615 5.63405815 -89.86541641 4.33005654 -91.78515625 0.93359375 C-91.99496732 -1.75134233 -91.85688937 -4.36813731 -91.78515625 -7.06640625 C-60.76315254 -21.60174817 -28.33055397 -21.01944327 0 0 Z " fill="#FEB332" transform="translate(306.78515625,342.06640625)"/>
<path d="M0 0 C51.48 0 102.96 0 156 0 C153.36 4.62 150.72 9.24 148 14 C146.02 17.96 144.04 21.92 142 26 C99.43 26 56.86 26 13 26 C3 8 3 8 0 0 Z " fill="#36B177" transform="translate(21,351)"/>
<path d="M0 0 C9.17082849 -0.09273712 18.34149522 -0.16378355 27.51269054 -0.20724869 C31.7714057 -0.22811132 36.02979973 -0.25640431 40.28833008 -0.30175781 C44.3991492 -0.34526351 48.5096597 -0.36914707 52.6206913 -0.37950897 C54.18799001 -0.38689193 55.75527209 -0.40130936 57.32243919 -0.42292023 C59.52026048 -0.45201852 61.71681157 -0.45595354 63.91479492 -0.45410156 C65.16499924 -0.46298401 66.41520355 -0.47186646 67.70329285 -0.48101807 C71.59905533 0.08740735 73.22946152 1.2595971 76 4 C77.46041228 6.92082455 77.11928796 9.48301369 77.11352539 12.74462891 C77.11367142 13.43742447 77.11381744 14.13022003 77.1139679 14.8440094 C77.11327018 17.13822541 77.10548442 19.43236064 77.09765625 21.7265625 C77.09579157 23.31554113 77.0943679 24.90452034 77.09336853 26.49349976 C77.08954731 30.67909325 77.07972039 34.86465213 77.06866455 39.05023193 C77.05844194 43.31994153 77.05386909 47.5896567 77.04882812 51.859375 C77.03809778 60.23959923 77.02102608 68.61979531 77 77 C73.22918278 77.02899599 69.45839417 77.04679729 65.6875 77.0625 C64.0797168 77.07506836 64.0797168 77.07506836 62.43945312 77.08789062 C61.41142578 77.09111328 60.38339844 77.09433594 59.32421875 77.09765625 C58.37635498 77.10289307 57.42849121 77.10812988 56.4519043 77.11352539 C54 77 54 77 51 76 C50.99589111 75.01717041 50.99178223 74.03434082 50.98754883 73.02172852 C50.96559464 69.33664196 50.91114092 65.65259869 50.84741211 61.96801758 C50.82437272 60.38055505 50.80986972 58.79294271 50.80444336 57.20532227 C50.91281883 44.2278971 50.91281883 44.2278971 45 33 C39.44987126 27.9815192 34.54926609 26.85066105 27.26953125 26.68359375 C26.51911057 26.66281265 25.76868988 26.64203156 24.99552917 26.62062073 C22.60127816 26.55530074 20.20691861 26.49632208 17.8125 26.4375 C16.18813987 26.39429807 14.56379067 26.35068324 12.93945312 26.30664062 C8.95974629 26.19963737 4.97993042 26.09832063 1 26 C0.07446257 22.86149936 -0.11664647 20.06319222 -0.09765625 16.796875 C-0.09443359 15.8171875 -0.09121094 14.8375 -0.08789062 13.828125 C-0.07951172 12.81234375 -0.07113281 11.7965625 -0.0625 10.75 C-0.05798828 9.71875 -0.05347656 8.6875 -0.04882812 7.625 C-0.03706088 5.08327427 -0.02062011 2.54166681 0 0 Z " fill="#279B61" transform="translate(409,57)"/>
<path d="M0 0 C3.7077421 1.11381769 5.05756584 3.35089441 6.9375 6.58203125 C7.25 10.45703125 7.25 10.45703125 6.9375 13.58203125 C7.9275 13.66453125 8.9175 13.74703125 9.9375 13.83203125 C15.49630924 14.62291874 21.39414187 17.088797 24.9375 21.58203125 C25.61564692 24.65064606 25.52171182 27.49961839 24.9375 30.58203125 C22.3255117 33.82722884 20.72213398 34.46359593 16.625 35.08203125 C13.28227132 34.6287799 11.884222 34.15277113 9.0625 32.58203125 C4.68749593 30.20799803 0.84358771 29.65874537 -4.0625 30.58203125 C-8.33653857 32.80641844 -8.33653857 32.80641844 -11.0625 36.58203125 C-11.58977943 41.1525525 -11.58977943 41.1525525 -9.8527832 45.17431641 C-7.7178826 46.85300683 -5.70720924 47.70375989 -3.16796875 48.66796875 C-2.21212891 49.04179687 -1.25628906 49.415625 -0.27148438 49.80078125 C1.73001102 50.5667058 3.73260518 51.32976572 5.73632812 52.08984375 C13.88457304 55.28566311 19.89071205 58.77472287 24.015625 66.796875 C26.49059315 74.27421522 26.19200551 82.81249441 23 90.01953125 C19.61407439 95.82120322 14.39810653 101.42849574 7.9375 103.58203125 C7.85113281 104.24589844 7.76476562 104.90976562 7.67578125 105.59375 C6.96913278 110.03461421 6.35192672 113.00643859 3.6875 116.70703125 C0.9375 118.58203125 0.9375 118.58203125 -2.0625 119.20703125 C-6.02583283 118.38133691 -7.50784526 116.64761694 -10.0625 113.58203125 C-11.5408226 110.62538606 -11.12282783 107.83973388 -11.0625 104.58203125 C-12.5165625 104.48921875 -12.5165625 104.48921875 -14 104.39453125 C-18.88503984 103.70663788 -23.06170299 101.40133016 -27.0625 98.58203125 C-29.52470488 94.88872393 -29.73520703 91.86838245 -29.0625 87.58203125 C-27.5625 85.08203125 -27.5625 85.08203125 -25.0625 83.58203125 C-20.60993389 83.07932217 -18.2435176 82.93783983 -14.3125 85.08203125 C-9.40125434 87.34876002 -4.39492445 87.15389293 0.9375 86.58203125 C3.40476525 85.59680929 4.60742734 85.02762935 6.1875 82.89453125 C7.25090047 79.61571313 7.31063827 77.00246542 6.9375 73.58203125 C2.99059697 69.55115156 -3.150182 68.15624129 -8.33203125 66.27539062 C-14.50369487 63.97000214 -19.94937032 61.31333137 -24.3125 56.20703125 C-25.03179687 55.39105469 -25.03179687 55.39105469 -25.765625 54.55859375 C-30.08458562 47.97608148 -29.89364061 40.14710698 -29.0625 32.58203125 C-26.2458734 24.43476423 -20.34012601 18.94860686 -13.0625 14.58203125 C-12.4025 14.58203125 -11.7425 14.58203125 -11.0625 14.58203125 C-11.165625 13.38578125 -11.26875 12.18953125 -11.375 10.95703125 C-11.35778345 7.73179674 -10.95030129 5.72116482 -9.0625 3.08203125 C-5.7445936 0.31710925 -4.2096144 -0.34282845 0 0 Z " fill="#66E6A3" transform="translate(183.0625,170.41796875)"/>
<path d="M0 0 C2.60373964 2.46670071 3.87520217 3.95681814 4.3046875 7.546875 C4.73970644 10.17968188 4.73970644 10.17968188 7.109375 11.1875 C7.98078125 11.455625 8.8521875 11.72375 9.75 12 C14.21084062 13.60641463 17.25876586 14.93541145 20 19 C20.06944397 22.95830645 19.5699479 25.14507816 17.375 28.4375 C14.08447324 30.60232024 11.86668289 30.41428745 8 30 C7.39285156 29.66871094 6.78570312 29.33742188 6.16015625 28.99609375 C3.33274432 27.69231429 1.04043428 27.69903507 -2.0625 27.6875 C-3.10535156 27.67074219 -4.14820313 27.65398437 -5.22265625 27.63671875 C-7.99024744 27.782929 -7.99024744 27.782929 -9.859375 29.2890625 C-11.70180693 32.0527104 -11.1820162 34.78438039 -11 38 C-9.7625 38.391875 -8.525 38.78375 -7.25 39.1875 C12.92216561 46.02821862 12.92216561 46.02821862 18.9375 56.3125 C21.21947254 64.23228705 20.62699574 70.41524986 16.63671875 77.6640625 C13.63074684 81.95420857 9.70846115 85.64576942 5 88 C4.39737901 90.2408573 4.04392817 92.48570975 3.66015625 94.7734375 C2.89312724 97.3604584 2.16670192 98.40772603 0 100 C-4.02028789 100.38288456 -6.71989249 100.52517231 -10.4375 99 C-12.87846006 95.87557112 -12.74313181 92.9172399 -13 89 C-13.825 88.95875 -14.65 88.9175 -15.5 88.875 C-20.48484025 87.62878994 -24.37404628 84.62595372 -28 81 C-28.57971014 73.92753623 -28.57971014 73.92753623 -26.4375 70.5 C-23.04826907 68.41431943 -20.92467225 68.52633266 -17 69 C-16.05125 69.495 -15.1025 69.99 -14.125 70.5 C-9.9973472 72.48127335 -6.50506789 72.7522694 -2 72 C0.71107713 70.62283334 0.71107713 70.62283334 2 68 C2.33417929 64.3324787 2.33417929 64.3324787 2 61 C0.7625 60.608125 -0.475 60.21625 -1.75 59.8125 C-3.50244197 59.21545352 -5.25219916 58.61049945 -7 58 C-7.99773437 57.6596875 -8.99546875 57.319375 -10.0234375 56.96875 C-17.97582675 54.00413134 -23.3788491 50.38350857 -27.16015625 42.6171875 C-29.08175652 36.6289448 -28.63489915 30.15160267 -26.875 24.1875 C-23.96657224 19.24317281 -20.79087421 15.19391614 -16 12 C-15.01 12 -14.02 12 -13 12 C-13.12375 10.4221875 -13.12375 10.4221875 -13.25 8.8125 C-12.96269651 4.43112175 -12.05154419 3.05154419 -9 0 C-5.77839187 -1.61080407 -3.42436421 -0.82657067 0 0 Z " fill="#FEB333" transform="translate(260,359)"/>
<path d="M0 0 C0 14.52 0 29.04 0 44 C-5.28 42.68 -10.56 41.36 -16 40 C-32.66700321 37.9166246 -50.16409124 37.5543815 -66.12109375 43.40234375 C-68.46490062 44.14787899 -70.55923429 44.23620313 -73 44 C-71.54618425 31.71525693 -62.31228861 21.07251947 -52.95703125 13.5546875 C-38.09042747 2.52665655 -18.53105541 -4.63276385 0 0 Z " fill="#289B61" transform="translate(434,274)"/>
<path d="M0 0 C1.6875587 0.04235213 3.37498064 0.09037788 5.06225586 0.14282227 C5.94868271 0.16643326 6.83510956 0.19004425 7.74839783 0.21437073 C10.59145347 0.29120415 13.43425007 0.37514322 16.27709961 0.45922852 C18.19961279 0.51242953 20.12213878 0.56517004 22.04467773 0.61743164 C26.76815039 0.74684577 31.49140249 0.8826347 36.21459961 1.02172852 C37.5662996 3.72512849 37.66075848 6.2725245 38.02709961 9.27172852 C38.8314866 14.7223508 39.74254406 17.81317633 43.21459961 22.02172852 C44.20459961 23.67172852 45.19459961 25.32172852 46.21459961 27.02172852 C22.78459961 27.02172852 -0.64540039 27.02172852 -24.78540039 27.02172852 C-22.91983345 22.35781117 -20.83073604 19.3880848 -17.59790039 15.70922852 C-17.10757324 15.14107422 -16.61724609 14.57291992 -16.11206055 13.98754883 C-14.67612911 12.32667838 -13.23171418 10.67355759 -11.78540039 9.02172852 C-11.04418945 8.16708008 -10.30297852 7.31243164 -9.53930664 6.43188477 C-3.96464068 0.02275737 -3.96464068 0.02275737 0 0 Z " fill="#36B277" transform="translate(69.785400390625,81.978271484375)"/>
<path d="M0 0 C1.02787125 0.00212242 1.02787125 0.00212242 2.07650757 0.00428772 C4.26719511 0.0098895 6.4577808 0.02244219 8.6484375 0.03515625 C10.13281102 0.04017103 11.61718615 0.04473397 13.1015625 0.04882812 C16.74222065 0.05985948 20.38281914 0.07712526 24.0234375 0.09765625 C23.97703125 1.11085937 23.930625 2.1240625 23.8828125 3.16796875 C23.84526992 4.51950157 23.80887244 5.87106653 23.7734375 7.22265625 C23.73992187 7.8878125 23.70640625 8.55296875 23.671875 9.23828125 C23.57098323 14.38376157 24.84336305 17.12256319 28.0234375 21.09765625 C28.6009375 21.67515625 29.1784375 22.25265625 29.7734375 22.84765625 C31.0234375 24.09765625 31.0234375 24.09765625 31.0234375 26.09765625 C5.2834375 26.09765625 -20.4565625 26.09765625 -46.9765625 26.09765625 C-44.27009966 23.39119341 -42.26600479 21.45269344 -39.2109375 19.3984375 C-38.49292969 18.91544189 -37.77492188 18.43244629 -37.03515625 17.93481445 C-36.27332031 17.43167725 -35.51148437 16.92854004 -34.7265625 16.41015625 C-33.93894531 15.88703857 -33.15132812 15.3639209 -32.33984375 14.82495117 C-9.69113731 -0.03939487 -9.69113731 -0.03939487 0 0 Z " fill="#36B277" transform="translate(140.9765625,30.90234375)"/>
<path d="M0 0 C0.4021875 0.8353125 0.4021875 0.8353125 0.8125 1.6875 C1.4003125 2.8321875 1.4003125 2.8321875 2 4 C2.4125 4.845625 2.825 5.69125 3.25 6.5625 C5.42090166 9.58625588 7.61199616 10.56950949 11 12 C0.35678787 25.74336854 -17.58390257 32.30530694 -34.2109375 35.53515625 C-38.80105876 36.09827422 -43.3160445 36.28133712 -47.9375 36.3125 C-48.73067627 36.31813965 -49.52385254 36.3237793 -50.34106445 36.32958984 C-55.24604859 36.26845241 -59.3459692 35.55547501 -64 34 C-60.45256568 30.34170836 -56.73084843 26.97088523 -52.8671875 23.6484375 C-51.01546321 22.08336351 -51.01546321 22.08336351 -49.6328125 20.4453125 C-47.67721725 18.71428321 -46.5781648 18.51453221 -44.0078125 18.2265625 C-43.22664063 18.12698242 -42.44546875 18.02740234 -41.640625 17.92480469 C-40.81046875 17.82586914 -39.9803125 17.72693359 -39.125 17.625 C-23.88155124 15.48930533 -11.91772632 9.72571594 0 0 Z " fill="#FF9201" transform="translate(374,457)"/>
<path d="M0 0 C0.165 1.051875 0.33 2.10375 0.5 3.1875 C1.47311432 6.76042719 3.00360069 8.01833576 6.125 9.9375 C7.40527848 10.64598151 8.69368149 11.34076485 10 12 C7.03056338 16.14407863 3.72187731 18.83678576 -0.5625 21.5 C-1.18020264 21.88945801 -1.79790527 22.27891602 -2.43432617 22.68017578 C-16.85357349 31.59902954 -31.7650548 36.1274683 -48.6875 36.25 C-49.88125244 36.26389771 -49.88125244 36.26389771 -51.09912109 36.27807617 C-56.3771446 36.25011241 -60.92671999 35.46110464 -66 34 C-65.28070313 33.45472656 -64.56140625 32.90945313 -63.8203125 32.34765625 C-60.94546957 30.06492317 -60.94546957 30.06492317 -58.5546875 27.30859375 C-51.12487029 19.34807531 -45.28265139 17.73537025 -34.62890625 16.5859375 C-23.502967 15.363107 -11.70883932 9.79054006 -3.81640625 1.78515625 C-2 0 -2 0 0 0 Z " fill="#FE9101" transform="translate(447,457)"/>
<path d="M0 0 C0.76454498 -0.0033284 1.52908997 -0.0066568 2.31680298 -0.01008606 C3.93580524 -0.01515247 5.55481795 -0.01749447 7.17382812 -0.01733398 C9.64731143 -0.01951647 12.12034588 -0.03766373 14.59375 -0.05664062 C16.16666514 -0.05957543 17.7395824 -0.06155964 19.3125 -0.0625 C20.42049454 -0.07327827 20.42049454 -0.07327827 21.5508728 -0.08427429 C25.26479896 -0.06780903 28.2167812 -0.04792912 31.2890625 2.16796875 C33.78937904 5.91844357 33.82509804 7.72653141 33.2890625 12.16796875 C30.51413318 15.89689649 29.02586036 17.04875848 24.38842773 17.79907227 C22.87506164 17.82514474 21.36102317 17.82289988 19.84765625 17.796875 C19.04296402 17.79928696 18.23827179 17.80169891 17.40919495 17.80418396 C15.71390843 17.80320747 14.01858925 17.78986083 12.32348633 17.76489258 C9.73083191 17.73052534 7.14157743 17.74425513 4.54882812 17.76367188 C2.89842302 17.75677446 1.24802669 17.74710301 -0.40234375 17.734375 C-1.17534317 17.73933487 -1.94834259 17.74429474 -2.74476624 17.74940491 C-6.24597704 17.67285616 -8.3183905 17.45885844 -11.16772461 15.34741211 C-13.37229398 12.23395051 -13.7109375 9.96345062 -13.7109375 6.16796875 C-9.89150799 0.10956332 -6.71776786 0.0100654 0 0 Z " fill="#35B176" transform="translate(28.7109375,220.83203125)"/>
<path d="M0 0 C0.75792847 -0.00004028 1.51585693 -0.00008057 2.29675293 -0.00012207 C3.89372076 0.00522171 5.49068894 0.02275595 7.08740234 0.05175781 C9.52393443 0.0936243 11.9576999 0.09282259 14.39453125 0.0859375 C15.95053993 0.09643105 17.50653444 0.10937005 19.0625 0.125 C19.78659058 0.12520142 20.51068115 0.12540283 21.25671387 0.12561035 C25.67469261 0.22835404 28.49758787 0.91292681 32.03125 3.59375 C33.95988839 6.13604606 34.04027291 7.37720018 33.90625 10.59375 C32.8567411 14.19206622 32.02566767 15.34860415 29.03125 17.59375 C26.13260241 18.0037678 23.62053818 18.1787502 20.72265625 18.16015625 C19.51705299 18.16945412 19.51705299 18.16945412 18.28709412 18.17893982 C16.59009002 18.18603199 14.89301626 18.1828744 13.19604492 18.17016602 C10.60529882 18.15631176 8.01817476 18.19035937 5.42773438 18.22851562 C3.77604079 18.22946701 2.12434269 18.22760696 0.47265625 18.22265625 C-0.68380653 18.24254356 -0.68380653 18.24254356 -1.8636322 18.26283264 C-5.86626719 18.19387472 -7.76064447 17.75534162 -10.95727539 15.27319336 C-12.96875 12.59375 -12.96875 12.59375 -13.59375 9.09375 C-12.21785618 1.38874461 -7.09307923 -0.16060547 0 0 Z " fill="#48CD8A" transform="translate(312.96875,220.40625)"/>
<path d="M0 0 C6.27 0 12.54 0 19 0 C17.13446958 6.622633 14.95594577 12.78801244 12 19 C10.2832598 17.56031297 8.57938671 16.10923658 6.890625 14.63671875 C5.30863762 13.26718835 3.68964277 11.94056224 2.0625 10.625 C0 8 0 8 0 0 Z " fill="#3D3A66" transform="translate(460,325)"/>
<path d="M0 0 C0.44070796 8.66725664 0.44070796 8.66725664 -3 13 C-6.51824511 15.34549674 -7.85775694 15.57991403 -12 15 C-14.57285724 12.827365 -16.48996919 11.02006162 -18 8 C-18.04022391 5.6670134 -18.04320247 3.33293334 -18 1 C-16.53626953 1.01740234 -16.53626953 1.01740234 -15.04296875 1.03515625 C-13.77066406 1.04417969 -12.49835938 1.05320312 -11.1875 1.0625 C-9.29064453 1.07990234 -9.29064453 1.07990234 -7.35546875 1.09765625 C-4.71731187 1.02087636 -2.50541891 0 0 0 Z " fill="#47CB88" transform="translate(190,274)"/>
<path d="M0 0 C3.54826607 0.28224844 4.11733807 0.85267081 7 3.375 C9 6.75 9 6.75 9 12.75 C3.06 13.08 -2.88 13.41 -9 13.75 C-9 6.75 -9 6.75 -7 3.3125 C-3.45098039 0.28104575 -3.45098039 0.28104575 0 0 Z " fill="#47CC89" transform="translate(181,170.25)"/>
<path d="M0 0 C-0.08746284 1.43861294 -0.19565348 2.87597508 -0.3125 4.3125 C-0.37050781 5.11300781 -0.42851562 5.91351563 -0.48828125 6.73828125 C-1.09884774 9.43689192 -1.76844243 10.38775084 -4 12 C-8.02028789 12.38288456 -10.71989249 12.52517231 -14.4375 11 C-16.87846006 7.87557112 -16.74313181 4.9172399 -17 1 C-14.54171921 0.83252588 -12.08338135 0.6659856 -9.625 0.5 C-8.92632812 0.45230469 -8.22765625 0.40460938 -7.5078125 0.35546875 C-2.2265625 0 -2.2265625 0 0 0 Z " fill="#FF9303" transform="translate(264,447)"/>
<path d="M0 0 C2.4375 2.25 2.4375 2.25 4 5 C4 6.65 4 8.3 4 10 C-3.92 10.495 -3.92 10.495 -12 11 C-12 3 -12 3 -9.9375 0.4375 C-6.0507849 -1.46450952 -4.11088021 -1.2706357 0 0 Z " fill="#FE9406" transform="translate(260,359)"/>
<path d="M0 0 C0.66 0.33 1.32 0.66 2 1 C1.01 2.485 1.01 2.485 0 4 C1.32 4.33 2.64 4.66 4 5 C1.36749612 6.31625194 0.19820944 5.74813658 -2.625 5.0625 C-3.44226563 4.86785156 -4.25953125 4.67320312 -5.1015625 4.47265625 C-6.04128906 4.23869141 -6.04128906 4.23869141 -7 4 C-4.66603411 2.44402274 -2.57343171 1.07918104 0 0 Z " fill="#FFC237" transform="translate(367,497)"/>
</svg>
